<?xml version="1.0" encoding="utf-8"?>
<!-- Generator: Adobe Illustrator 26.4.1, SVG Export Plug-In . SVG Version: 6.00 Build 0)  -->
<svg version="1.1" id="Layer_1" xmlns="http://www.w3.org/2000/svg" xmlns:xlink="http://www.w3.org/1999/xlink" x="0px" y="0px"
	 viewBox="0 0 3061.4 2579.5" style="enable-background:new 0 0 3061.4 2579.5;" xml:space="preserve">
<style type="text/css">
	.st0{fill:#FFFFFF;}
</style>
<g>
	<path class="st0" d="M1267.7,1558.9c-97,0-175.9-78.9-175.9-175.9s78.9-175.9,175.9-175.9s175.9,78.9,175.9,175.9
		S1364.7,1558.9,1267.7,1558.9z M1267.7,1313c-38.6,0-70,31.4-70,70s31.4,70,70,70s70-31.4,70-70S1306.3,1313,1267.7,1313z"/>
	<path class="st0" d="M2293.3,1112.1h-363.5c-2.5,0-4.5-2-4.5-4.5v-19.8c0-2.5,2-4.5,4.5-4.5h363.5c2.5,0,4.5,2,4.5,4.5v19.8
		C2297.7,1110.1,2295.7,1112.1,2293.3,1112.1z"/>
	<path class="st0" d="M752.1,1618.8c31.3,29.4,62.2,58.5,93.8,88.2c5.7,5.3,14.3,6,20.8,1.6c7.3-5,14.5-9.9,21.7-14.9
		c70.4-48.6,141-97.1,211.1-146.2c9-6.3,14.1-5.1,22,1.4c75.3,61.4,158.9,73.6,245.5,30.7c86.7-43,127.4-117.3,123.6-214.3
		c-1.8-46.6-19.1-88.2-48.9-126.2c17-18.2,32.9-35.2,49.5-53c-14.9-14-28.8-27.1-44-41.4c-17,17.7-33.3,34.9-50.1,52.4
		c-38.2-25.8-79.5-40.1-125.2-40.7c-62.2-0.8-116,20.1-160.4,63.5c-23.3,22.8-45.2,47-67,71.3c-3.8,4.2-5.5,11.5-5.8,17.6
		c-0.5,8.6,1.9,17.3,1.7,25.9c-0.3,10.6-5.4,19.3-17.1,13.9c-21.2-9.7-33.3-0.8-47.5,14.7c-71.4,77.7-144.1,154.1-216.4,231
		c-2.6,2.8-5.2,5.6-8,8.7C747.3,1607.6,747.6,1614.6,752.1,1618.8z M1116.4,1398.3c-8.4-81.4,50.4-153.8,131.7-162.3
		c81.2-8.5,154.6,50.9,162.6,131.5c8.1,81.6-50.7,154-131.9,162.4C1197.5,1538.4,1124.8,1479.5,1116.4,1398.3z"/>
	<g>
		<g transform="translate(382.191135, 1077.183174)">
			<g>
				<path class="st0" d="M996.8,441.7V218.8h191.8v222.9H996.8z"/>
			</g>
		</g>
	</g>
	<g>
		<g transform="translate(464.588223, 1030.499306)">
			<g>
				<path class="st0" d="M1001.8,75.9c-7.6,6.5-16.4,10.8-26.4,12.9c-10.1,2.2-19.7,1.8-28.9-1c-9.2-2.9-16.8-8.9-22.9-18.1
					c-6.1-9.2-9.2-22-9.2-38.6l106.9-80.9v46.4l68.5-51.8v77.2c0,10.8-3.1,20.8-9.2,29.9c-6.1,9.2-13.9,16.6-23.4,22.4
					c-9.5,5.7-19.2,9-29.1,9.7C1018,84.7,1009.3,82,1001.8,75.9z"/>
			</g>
		</g>
	</g>
	<g>
		<rect x="1855.6" y="1296.5" class="st0" width="291.8" height="222.9"/>
		<path class="st0" d="M2283.5,1131.4l-389-0.4c16.9,5.2,88,30.1,120.5,70.7c22,27.5,36,55.2,40,71.8h135.7
			c6.4,0,11.6,5.2,11.6,11.6c0,6.4-5.2,11.6-11.6,11.6H1979v222.9h304.5c49.4,0,89.4-40,89.4-89.4v-209.2
			C2372.9,1171.5,2332.9,1131.4,2283.5,1131.4z"/>
	</g>
	<path class="st0" d="M2029.9,1261.8c-8.7-20.3-20.7-38-35.9-53.2c-15.2-15.2-32.9-27.2-53.2-36c-20.3-8.7-41.9-13.1-65-13.1h-85
		L1913,989.1h-252.6l-191.2,254.2l16.4,30.5H1691c6.1,0,11,4.9,11,11l0,0c0,6.1-4.9,11-11,11h-136.8c-1.5,0.8-3.1,1.3-4.9,1.3h-14.9
		v222.9h508.7v-164.2C2043.1,1332.8,2038.7,1282.1,2029.9,1261.8z"/>
	<g>
		<path class="st0" d="M731.6,1314.9c1.9,0,3.5-0.3,4.7-0.9v8.1c-2.3,0.8-5,1.2-8,1.2c-7.7,0-12.1-3.5-13.1-10.5
			c-5.8,7-13.6,10.5-23.3,10.5c-6.5,0-11.7-1.7-15.5-5c-3.9-3.3-5.8-7.6-5.8-12.9c0-6.8,2.7-11.9,8-15.3c5.3-3.4,12.3-5.1,21-5.1
			c4.8,0,9.9,0.4,15.4,1.1v-5.4c0-3.8-1.4-6.9-4.2-9.3c-2.8-2.4-7.1-3.6-12.8-3.6c-7.7,0-15.2,1.7-22.4,5.2l-2.1-8.6
			c7.1-3.5,15.7-5.2,25.8-5.2c8.8,0,15.5,2,20,6c4.6,4,6.8,9.4,6.8,16.2v26.7c0,2.2,0.4,3.9,1.2,5
			C728,1314.4,729.4,1314.9,731.6,1314.9z M695.3,1314.8c7.4,0,13.9-3.2,19.6-9.6v-10.6c-4.4-0.7-9.2-1.1-14.7-1.1
			c-12.2,0-18.4,3.6-18.4,10.7c0,3.3,1.2,5.9,3.6,7.8C688,1313.9,691.2,1314.8,695.3,1314.8z"/>
		<path class="st0" d="M793.4,1322.9l-23.1-27.4h-11.6v27.4h-11.1v-88.4l11.1-1.6v54h11l20.7-25.6h12.1l-23.2,29.3l26.6,32.3H793.4z
			"/>
		<path class="st0" d="M863.4,1322.9l-23.1-27.4h-11.6v27.4h-11.1v-88.4l11.1-1.6v54h11l20.7-25.6h12.1l-23.2,29.3l26.6,32.3H863.4z
			"/>
		<path class="st0" d="M893.4,1250l-8.5-8.3l8.5-8.1l8.3,8.1L893.4,1250z M898.8,1322.9h-11.1v-61.6h11.1V1322.9z"/>
		<path class="st0" d="M994.4,1260c7.1,0,12.7,2,16.5,5.9c3.9,3.9,5.8,9.5,5.8,16.6v40.3h-11.1v-40.1c0-4.5-1.3-8-3.9-10.5
			c-2.6-2.5-6.4-3.7-11.2-3.7c-6.7,0-12.4,3-17.3,8.9c0.2,1.6,0.4,3.2,0.4,5.1v40.3h-11.1v-40.1c0-4.5-1.3-8-3.9-10.5
			c-2.6-2.5-6.4-3.7-11.2-3.7c-6.4,0-12,3-16.9,8.9v45.4h-11.1v-61.6h10.2l0.9,9.4c5.2-7.1,12.1-10.6,20.8-10.6
			c10.7,0,17.5,4.1,20.6,12.3C977.2,1264.1,984.8,1260,994.4,1260z"/>
		<path class="st0" d="M748.9,1156.9c6.4,0,11.6-3.6,15.4-10.8c1,2.8,3,5,5.8,6.5c2.8,1.5,5.9,2.3,9.2,2.3c4.6,0,8.3-1.5,11-4.4
			c2.7-3,4.1-6.9,4.1-11.8c0-5.9-2.2-12.3-6.6-19.3l-5.4,3.1c2.3,5.1,3.5,9.1,3.5,11.9c0,2.3-0.6,4.3-1.9,5.8
			c-1.3,1.5-3.2,2.3-5.8,2.3c-6.7,0-10-5.4-10-16.2l-5.8-0.4c-0.8,6.2-1.9,10.8-3.5,13.9c-1.5,3.1-4.2,4.6-8.1,4.6
			c-2,0-3.7-0.6-5-1.7c-1.3-1.1-1.9-2.9-1.9-5.2c0-1.3,0.2-2.6,0.6-3.9c0.4-1.3,0.8-2.6,1.4-3.9l-4.2-1.9
			c-3.6,5.7-5.4,11.1-5.4,16.2c0,3.9,1.2,6.9,3.5,9.3C742,1155.7,745.1,1156.9,748.9,1156.9z"/>
		<path class="st0" d="M839.8,1224H911c0.7-1.3,1.4-3.2,2.2-5.6c1.8,1.6,4,3,6.6,4c2.6,1.1,5.3,1.6,8.1,1.6v0c0,0,0,0,0,0l0,0
			c0,0,0,0,0,0c9.1,0,16.9-0.2,23.2-0.6c6.4-0.4,13.2-1.6,20.5-3.5c7.3-2,14.4-5,21.3-9.1c5.7-3.4,10.6-6.1,14.7-8.1
			c4.1-2,8.4-3.4,13.1-4.3c4.6-0.9,9.9-1.3,15.8-1.1l4.9-13.9l-0.5-1.5c-1.6,0.3-4.5,0.5-8.6,0.5c-5.4,0-10.3-0.9-14.7-2.6
			c-4.4-1.7-9.6-4.4-15.7-8c-3.3-1.8-6.7-3.6-10.3-5.4c-3.6-1.8-7.2-3.2-10.9-4.2c-3.7-1-7.5-1.5-11.6-1.5c-3.6,0-6.8,0.4-9.5,1.1
			c-2.8,0.7-6,1.9-9.5,3.5l-2.2,14.9l1.2,0.7c5.5-3.1,11.6-4.6,18.1-4.6c6.2,0,12.3,1.2,18.5,3.5c6.1,2.4,12.4,5.7,18.7,9.9
			c-7.2,5.4-14,9.3-20.4,11.7c-6.4,2.4-13.4,4-20.8,4.8c-7.4,0.7-17.6,1.1-30.4,1.1c-3.9,0-7.3-0.5-10-1.6c-2.8-1.1-4.9-2.8-6.4-5.3
			c-0.2-9-4.3-18.2-12.4-27.6c-8.1-9.5-20-20-35.8-31.5c7.8-4.2,17.9-9,30.3-14.2c12.4-5.2,21.9-8.7,28.4-10.5l5.9-19.1
			c-14.2,5.1-27.1,10.2-38.8,15.3c-11.7,5.1-20.8,9.8-27.5,14.1c-1.6,1-3.2,3.2-4.8,6.7c-1.5,3.5-2.8,7.2-3.8,11.1
			c-1,3.9-1.5,6.7-1.5,8.3c0,1.3,0.6,2.7,1.9,4.3c1.3,1.5,3.5,3.6,6.6,6.2c3.1,2.4,5.9,4.9,8.6,7.3h1c0.2-0.6,0.7-1.5,1.7-2.7
			c8.3,5.7,15.5,12,21.4,18.7c6,6.8,9.4,13.6,10.4,20.4h-63.3h0h-29.8h0H785h0h-29.8h0h-29.8h0h-29.8h0h-29.8
			c-3.8,0-6.7-0.4-8.8-1.2c-2.1-0.8-4.2-2.6-6.1-5.3c-2-2.7-4-7-6.1-12.8c-2.1-6.4-4-11.6-5.5-15.8c-1.5-4.2-2.8-6.8-3.8-8.1
			c-1-1.2-2.1-1.8-3.4-1.8c-2.1,0-6.5,1.4-13.2,4.2c-6.7,2.8-13.4,6-20.3,9.8c-6.9,3.7-11.7,6.9-14.4,9.5
			c-4.7,4.6-8.3,9.4-10.8,14.6c-2.4,5.1-3.7,10.8-3.7,17c0,2.9,0.5,6.9,1.6,12c1.1,5.1,2.6,11.4,4.5,19.1c0.5,1.8,1.4,5.4,2.6,10.8
			c1.2,5.4,3,10.2,4,14.9c1.5,7.3,2.4,13.9,2.9,19.8v29h10.9v-36.3h46.7v36.3h10.9v-80.7l-10.9,1.5v33.7h-46.7l-0.9-3.1
			c-0.4-2.8-0.9-5.8-1.6-9.1c-1.3-6.2-3.2-14.1-5.6-23.7c-2.1-7.8-3.7-14.1-4.7-19c-1-4.8-1.5-8.8-1.5-12.1c0-2.6,0.3-4.7,0.9-6.2
			c0.6-1.6,1.8-3.2,3.8-5c2.8-2.8,7.1-5.5,13-8.3l-3.4,11.7c1.6,3.6,5.1,7.5,10.4,11.6c5.3,4.2,11.1,7.6,17.5,10.4
			c6.4,2.8,11.7,4.2,15.9,4.2c2,0,3.6-0.8,5-2.3c1.4-1.5,2.5-4,3.3-7.5c1.6,1.5,3.7,2.6,6.2,3.4c2.5,0.8,4.7,1.2,6.5,1.2l0,0h29.8h0
			h29.8h0h29.8h0h29.8h0H810h0H839.8L839.8,1224z M641.2,1212.6c-0.3,0.2-0.6,0.4-1,0.4c-3.1,0-7-1-11.6-3.1
			c-4.6-2-9.3-4.9-13.8-8.6c-4.6-3.7-8.3-7.8-11.2-12.4c8.5-4.1,16.7-7.2,24.7-9.3c1.8,5.4,4,11.3,6.7,17.7
			c2.7,6.4,4.9,11.2,6.7,14.3C641.7,1212.1,641.5,1212.4,641.2,1212.6z"/>
		<polygon class="st0" points="794.1,1177.2 732.4,1181.8 736.6,1172.8 798.4,1168.2 		"/>
	</g>
</g>
<g>
</g>
<g>
</g>
<g>
</g>
<g>
</g>
<g>
</g>
<g>
</g>
</svg>
